<?xml version="1.0" standalone="no"?>
<!DOCTYPE svg PUBLIC "-//W3C//DTD SVG 20010904//EN"
 "http://www.w3.org/TR/2001/REC-SVG-20010904/DTD/svg10.dtd">
<svg version="1.0" xmlns="http://www.w3.org/2000/svg"
 width="822.000000pt" height="604.000000pt" viewBox="0 0 822.000000 604.000000"
 preserveAspectRatio="xMidYMid meet">

<g transform="translate(0.000000,604.000000) scale(0.100000,-0.100000)"
fill="#000000" stroke="none">
<path d="M3931 6019 c-310 -61 -577 -315 -648 -617 -18 -76 -25 -82 -76 -63
-14 6 -62 15 -106 21 -230 31 -464 -66 -618 -255 -99 -123 -147 -260 -147
-420 0 -195 64 -353 203 -498 301 -318 778 -334 1119 -39 61 53 73 77 50 100
-22 22 -50 13 -102 -32 -269 -229 -608 -258 -881 -75 -353 236 -406 697 -114
974 163 154 401 205 607 130 93 -34 115 -31 124 15 40 196 68 271 142 373 100
141 244 241 413 288 99 28 265 30 368 5 256 -62 472 -270 540 -521 25 -92 30
-256 11 -336 -25 -109 -63 -177 -142 -256 -85 -87 -186 -139 -337 -178 -116
-29 -117 -30 -117 -59 0 -45 22 -51 113 -31 223 48 386 150 486 304 49 77 78
161 93 274 14 103 15 104 145 138 97 24 189 24 287 -1 112 -28 190 -73 277
-160 129 -127 187 -280 176 -458 -7 -115 -37 -205 -98 -297 -61 -91 -143 -162
-242 -209 -90 -42 -151 -57 -247 -58 -118 -1 -110 26 -110 -370 l0 -338 -920
0 -920 0 0 179 c0 204 -6 231 -49 231 -17 0 -31 -6 -35 -16 -12 -31 -7 -449 6
-462 17 -17 1979 -17 1996 0 9 9 12 100 12 350 l0 338 43 0 c77 0 181 29 277
76 77 39 109 62 175 128 137 138 199 289 199 481 0 169 -43 296 -144 427 -174
226 -487 320 -756 228 -32 -11 -61 -17 -64 -13 -4 5 -12 34 -18 65 -6 32 -25
91 -42 132 -133 319 -433 518 -774 515 -61 -1 -131 -5 -155 -10z"/>
<path d="M5601 4711 c-8 -5 -18 -35 -22 -70 -21 -177 -157 -317 -334 -342 -80
-11 -85 -14 -85 -43 0 -49 48 -58 155 -31 130 34 251 132 305 247 37 79 60
209 40 232 -14 18 -38 20 -59 7z"/>
<path d="M1364 3012 c-38 -25 -36 -80 4 -101 10 -5 1155 -12 2754 -16 l2736
-7 18 27 c16 25 16 30 3 54 l-15 26 -299 6 c-448 10 -5188 20 -5201 11z"/>
<path d="M1372 2700 c-41 -17 -49 -80 -11 -100 23 -13 5467 -31 5491 -19 41
22 43 87 4 102 -9 4 -1160 9 -2559 12 -1398 3 -2623 7 -2722 9 -99 3 -190 1
-203 -4z"/>
<path d="M1356 2377 c-23 -17 -24 -63 -2 -85 15 -16 222 -18 2744 -25 1500 -4
2737 -5 2750 -2 59 15 43 99 -20 109 -18 3 -1252 8 -2743 11 -2296 5 -2713 4
-2729 -8z"/>
<path d="M1367 2069 c-43 -25 -39 -94 7 -104 28 -5 2761 -15 4281 -15 l1200
-1 18 22 c19 24 15 56 -9 75 -11 8 -374 13 -1317 18 -2777 13 -4163 14 -4180
5z"/>
<path d="M460 1319 c-202 -20 -366 -158 -426 -358 -10 -34 -17 -91 -17 -146 0
-152 44 -266 143 -365 178 -178 468 -196 677 -42 72 53 144 168 167 265 l6 27
-129 0 -129 0 -11 -29 c-31 -74 -119 -124 -221 -124 -147 0 -247 95 -258 243
-5 81 9 137 51 192 68 91 211 125 317 77 56 -25 77 -44 101 -91 l19 -38 129 0
129 0 -13 49 c-38 144 -168 275 -320 323 -50 16 -146 23 -215 17z"/>
<path d="M1545 1322 c-201 -13 -381 -153 -446 -349 -27 -82 -30 -221 -6 -301
52 -171 179 -297 351 -350 70 -21 215 -20 290 2 231 68 379 281 363 521 -10
144 -61 251 -164 345 -105 96 -240 142 -388 132z m127 -252 c52 -15 119 -68
146 -118 46 -83 45 -206 -3 -281 -55 -87 -123 -124 -227 -124 -118 0 -217 67
-253 172 -48 141 23 300 154 347 44 16 133 18 183 4z"/>
<path d="M2655 1322 c-201 -13 -381 -153 -446 -349 -27 -82 -30 -221 -6 -301
52 -171 179 -297 351 -350 70 -21 215 -20 290 2 231 68 379 281 363 521 -10
144 -61 251 -164 345 -105 96 -240 142 -388 132z m127 -252 c52 -15 119 -68
146 -118 46 -83 45 -206 -3 -281 -55 -87 -123 -124 -227 -124 -118 0 -217 67
-253 172 -48 141 23 300 154 347 44 16 133 18 183 4z"/>
<path d="M5555 1297 c-93 -34 -140 -63 -198 -121 -209 -209 -197 -560 26 -750
98 -83 201 -120 333 -119 289 1 506 220 505 511 -1 227 -134 406 -360 483 -78
27 -225 25 -306 -4z m230 -108 c119 -22 214 -94 270 -205 28 -55 30 -67 30
-169 0 -97 -3 -116 -26 -165 -96 -204 -361 -280 -552 -158 -242 155 -223 533
34 663 80 41 153 51 244 34z"/>
<path d="M6675 1297 c-93 -34 -140 -63 -198 -121 -209 -209 -197 -560 26 -750
98 -83 201 -120 333 -119 289 1 506 220 505 511 -1 227 -134 406 -360 483 -78
27 -225 25 -306 -4z m230 -108 c119 -22 214 -94 270 -205 28 -55 30 -67 30
-169 0 -97 -3 -116 -26 -165 -96 -204 -361 -280 -552 -158 -242 155 -223 533
34 663 80 41 153 51 244 34z"/>
<path d="M4300 814 l0 -495 288 3 c275 3 289 4 337 26 158 73 227 263 155 430
-20 47 -86 120 -133 147 -17 9 -17 13 -1 59 35 101 -5 221 -92 276 -63 39
-140 50 -362 50 l-192 0 0 -496z m471 349 c39 -23 63 -76 56 -125 -9 -68 -9
-68 -213 -68 l-184 0 0 105 0 105 156 0 c129 0 161 -3 185 -17z m104 -339 c22
-11 54 -40 70 -63 27 -38 30 -51 30 -116 0 -65 -3 -78 -30 -116 -54 -76 -80
-84 -312 -87 l-203 -3 0 206 0 207 203 -3 c181 -4 206 -6 242 -25z"/>
<path d="M7510 815 l0 -495 65 0 65 0 2 232 3 232 209 -232 209 -232 80 0 81
0 -26 27 c-149 163 -419 475 -416 482 2 5 95 111 208 236 113 124 207 231 208
236 2 5 -29 9 -72 9 l-75 0 -203 -221 -203 -221 -5 219 -5 218 -62 3 -63 3 0
-496z"/>
<path d="M3330 810 l0 -490 125 0 125 0 2 220 3 220 140 -220 140 -220 139 0
138 0 -14 23 c-225 347 -308 477 -308 485 0 4 58 96 128 203 70 107 138 211
151 232 l23 37 -139 0 -138 -1 -130 -202 -130 -202 -3 203 -2 202 -125 0 -125
0 0 -490z"/>
</g>
</svg>
